<svg width="100%" height="100%" viewBox="0 0 691 705" fill="none" xmlns="http://www.w3.org/2000/svg">
<path d="M423.468 421.231C353.71 413.356 303.574 350.46 311.449 280.702C332.308 95.9326 451.591 -64.2459 622.759 -137.206C687.322 -164.757 761.98 -134.761 789.531 -70.1978C817.082 -5.63444 787.086 69.0226 722.523 96.5735C635.375 133.741 574.676 215.232 564.066 309.22C556.191 378.978 493.294 429.114 423.536 421.239L423.468 421.231Z" fill="white"/>
<path d="M423.468 421.231C353.71 413.356 303.574 350.46 311.449 280.702C332.308 95.9326 451.591 -64.2459 622.759 -137.206C687.322 -164.757 761.98 -134.761 789.531 -70.1978C817.082 -5.63444 787.086 69.0226 722.523 96.5735C635.375 133.741 574.676 215.232 564.066 309.22C556.191 378.978 493.294 429.114 423.536 421.239L423.468 421.231Z" fill="url(#paint0_linear_384_941)"/>
<path d="M423.461 421.231C353.702 413.356 303.566 350.459 311.441 280.701C322.052 186.713 281.048 93.7407 204.38 38.0798C147.584 -3.17157 134.987 -82.6369 176.239 -139.433C217.49 -196.229 296.888 -208.833 353.684 -167.582C504.27 -58.2295 584.849 124.443 563.99 309.212C556.115 378.97 493.219 429.106 423.461 421.231Z" fill="#DDDDDD"/>
<path d="M557.423 704.216C621.507 711.451 679.323 665.365 686.558 601.28C693.793 537.196 647.706 479.38 583.621 472.145C519.536 464.911 461.72 510.997 454.486 575.081C447.251 639.166 493.338 696.982 557.423 704.216Z" fill="#DDDDDD"/>
<path d="M229.795 667.229C293.88 674.464 351.696 628.378 358.93 564.293C366.165 500.209 320.079 442.393 255.994 435.158C191.909 427.924 134.093 474.01 126.858 538.094C119.624 602.179 165.71 659.995 229.795 667.229Z" fill="#DDDDDD"/>
<path d="M745.29 448.368C809.375 455.603 867.191 409.517 874.426 345.432C881.661 281.347 835.574 223.532 771.489 216.297C707.404 209.062 649.588 255.149 642.354 319.233C635.119 383.318 681.205 441.134 745.29 448.368Z" fill="#DDDDDD"/>
<path d="M103.684 375.936C167.769 383.171 225.585 337.085 232.82 273C240.054 208.916 193.968 151.1 129.883 143.865C65.7982 136.63 7.98223 182.717 0.747615 246.801C-6.487 310.886 39.5993 368.702 103.684 375.936Z" fill="#DDDDDD"/>
<defs>
<linearGradient id="paint0_linear_384_941" x1="330.497" y1="111.972" x2="779.829" y2="162.698" gradientUnits="userSpaceOnUse">
<stop/>
<stop offset="1" stop-color="white"/>
</linearGradient>
</defs>
</svg>
