<svg width="100%" height="100%" viewBox="0 0 121 19" fill="none" xmlns="http://www.w3.org/2000/svg">
<path d="M11.8566 0H15.4842V14.5106H11.9384L3.62762 5.22326L3.69036 14.5106H0V0H3.42033L11.8566 9.35005V0Z" fill="white"/>
<path d="M16.7274 0H20.8515V3.00576H16.7274V0ZM20.6469 4.14588V14.5106H16.9974L16.9756 4.14588H20.6442H20.6469Z" fill="white"/>
<path d="M29.0617 11.4638L26.4078 14.5105H22.0956L27.0297 9.12085L22.0956 4.06396H26.4269L29.0808 7.09155L31.5901 4.06396H35.9215L31.1319 9.0172L36.1697 14.5105H31.8383L31.7129 14.3659L29.059 11.4638H29.0617Z" fill="white"/>
<path d="M35.9646 0H39.9659L43.8826 10.0128L47.7803 0H51.7816L45.9992 14.5106H41.8315L35.9646 0Z" fill="white"/>
<path d="M62.9944 12.7268C62.4271 13.4606 61.6579 14.047 60.6842 14.4888C59.7105 14.9307 58.5676 15.1516 57.253 15.1516C55.7746 15.1516 54.5145 14.8789 53.4699 14.3334C52.4252 13.7879 51.6424 13.076 51.116 12.1977C50.5896 11.3194 50.3278 10.3839 50.3278 9.38832C50.3278 8.39276 50.5923 7.45721 51.1269 6.57894C51.6588 5.70067 52.4471 4.98878 53.489 4.44327C54.5336 3.89776 55.7856 3.625 57.2502 3.625C58.5895 3.625 59.7514 3.85411 60.7333 4.30962C61.7152 4.76512 62.4871 5.37609 63.0544 6.14526C63.6218 6.9117 63.9654 7.74633 64.0909 8.6437C64.1182 8.97646 64.1318 9.22467 64.1318 9.39105C64.1318 9.59834 64.1236 9.75654 64.11 9.86837H53.9936C54.1027 10.6157 54.4436 11.2431 55.0082 11.7558C55.5755 12.2686 56.3202 12.5223 57.2475 12.5223C58.0767 12.5223 58.764 12.315 59.3095 11.9004C59.855 11.4858 60.2178 10.9621 60.3978 10.3239H64.0664C63.9136 11.194 63.5536 11.9959 62.989 12.7296L62.9944 12.7268ZM60.0923 7.7327C59.8169 7.29083 59.435 6.93352 58.9522 6.66622C58.4695 6.39619 57.9021 6.26254 57.253 6.26254C56.6038 6.26254 56.0365 6.39619 55.5537 6.66622C55.0709 6.93625 54.6891 7.29083 54.4136 7.7327H60.0923Z" fill="white"/>
<path d="M65.1711 6.79989V4.14598H67.7405V0.0410156H71.409V4.14598H73.9784V6.79989H71.409V14.5107H67.7405V6.79989H65.1711Z" fill="white"/>
<path d="M84.4303 0L90.7118 14.5106H87.0842L85.7777 11.3794H80.0771L78.7706 14.5106H75.2249L81.4436 0H84.4276H84.4303ZM84.6158 8.78818L82.9165 4.57956L81.2363 8.78818H84.6158Z" fill="white" fill-opacity="0.62"/>
<path d="M102.576 4.35317C103.482 4.83595 104.191 5.50147 104.701 6.34429C105.211 7.1871 105.467 8.1281 105.467 9.16457C105.467 10.201 105.214 11.1857 104.712 12.0367C104.207 12.8877 103.504 13.5505 102.598 14.0278C101.692 14.5051 100.667 14.7424 99.5186 14.7424C97.8602 14.7424 96.5619 14.2869 95.6209 13.3732V18.6592H91.9524V4.06405H95.6209V5.22599C96.5892 4.16224 97.8875 3.63037 99.5186 3.63037C100.65 3.63037 101.671 3.87312 102.576 4.3559V4.35317ZM96.4419 11.3275C96.9874 11.8321 97.773 12.0831 98.7958 12.0831C99.7504 12.0831 100.481 11.8239 100.994 11.3057C101.504 10.7875 101.761 10.0728 101.761 9.15912C101.761 8.24539 101.491 7.57441 100.953 7.05618C100.413 6.53794 99.6959 6.27882 98.7985 6.27882C97.7893 6.27882 97.0092 6.53794 96.4556 7.05618C95.9019 7.57441 95.6264 8.27539 95.6264 9.15912C95.6264 10.1001 95.8991 10.8202 96.4446 11.3248L96.4419 11.3275Z" fill="white" fill-opacity="0.62"/>
<path d="M117.339 4.35317C118.245 4.83595 118.954 5.50147 119.464 6.34429C119.974 7.1871 120.231 8.1281 120.231 9.16457C120.231 10.201 119.98 11.1857 119.475 12.0367C118.97 12.8877 118.267 13.5505 117.361 14.0278C116.456 14.5051 115.43 14.7424 114.282 14.7424C112.623 14.7424 111.325 14.2869 110.384 13.3732V18.6592H106.716V4.06405H110.384V5.22599C111.352 4.16224 112.651 3.63037 114.282 3.63037C115.414 3.63037 116.434 3.87312 117.339 4.3559V4.35317ZM111.202 11.3275C111.748 11.8321 112.533 12.0831 113.556 12.0831C114.511 12.0831 115.242 11.8239 115.755 11.3057C116.265 10.7875 116.521 10.0728 116.521 9.15912C116.521 8.24539 116.251 7.57441 115.714 7.05618C115.174 6.53794 114.456 6.27882 113.559 6.27882C112.55 6.27882 111.77 6.53794 111.216 7.05618C110.662 7.57441 110.387 8.27539 110.387 9.15912C110.387 10.1001 110.66 10.8202 111.205 11.3248L111.202 11.3275Z" fill="white" fill-opacity="0.62"/>
</svg>
